<?xml version="1.0" standalone="no"?>
<!DOCTYPE svg PUBLIC "-//W3C//DTD SVG 20010904//EN"
 "http://www.w3.org/TR/2001/REC-SVG-20010904/DTD/svg10.dtd">
<svg version="1.0" xmlns="http://www.w3.org/2000/svg"
 width="256.000000pt" height="256.000000pt" viewBox="0 0 256.000000 256.000000"
 preserveAspectRatio="xMidYMid meet">
<metadata>
Created by potrace 1.11, written by Peter Selinger 2001-2013
</metadata>
<g transform="translate(0.000000,256.000000) scale(0.100000,-0.100000)"
fill="#000000" stroke="none">
<path d="M2160 2523 c-119 -20 -291 -73 -372 -114 -21 -11 -38 -16 -38 -12 0
5 -4 3 -8 -3 -4 -6 -38 -26 -77 -44 -38 -18 -73 -38 -77 -44 -4 -7 -63 -11
-155 -12 -197 -1 -294 -16 -439 -67 -59 -22 -200 -96 -230 -122 -6 -5 -28 -23
-49 -40 -21 -16 -55 -48 -74 -69 -20 -21 -43 -46 -52 -55 -31 -31 -102 -145
-135 -216 -62 -133 -89 -272 -89 -447 0 -47 -3 -84 -6 -82 -4 2 -13 -4 -20
-13 -12 -14 -11 -15 8 -9 12 4 24 2 28 -3 3 -7 0 -8 -9 -5 -19 7 -22 -12 -3
-20 6 -3 1 -3 -13 1 -22 5 -23 4 -11 -10 9 -12 18 -14 30 -7 13 6 18 5 18 -4
0 -7 -5 -13 -11 -14 -6 -1 -24 -3 -39 -6 -19 -3 -30 1 -34 10 -4 12 -8 12 -19
-3 -17 -23 -18 -37 -1 -26 19 12 49 3 68 -20 10 -12 18 -17 19 -10 0 6 -5 15
-11 19 -8 5 -6 10 5 16 10 6 20 7 23 4 4 -3 1 -6 -5 -6 -9 0 -10 -18 -3 -60 1
-3 6 2 11 10 5 8 10 10 10 5 0 -6 -7 -20 -15 -32 -9 -13 -11 -23 -5 -26 6 -3
5 -4 -2 -2 -7 1 -12 8 -10 14 1 6 -2 11 -8 11 -13 0 -13 -27 0 -35 6 -3 10
-12 10 -18 0 -7 -5 -4 -11 5 -5 10 -15 18 -21 18 -6 0 -2 -12 8 -28 14 -22 15
-25 1 -14 -14 12 -15 9 -12 -27 2 -27 -1 -46 -11 -56 -9 -8 -12 -15 -8 -15 4
0 0 -8 -9 -18 -12 -13 -14 -21 -6 -29 7 -7 3 -10 -15 -8 -19 2 -24 -1 -23 -16
1 -10 7 -19 14 -19 6 0 11 -9 10 -19 0 -11 -5 -19 -10 -18 -5 1 -12 -4 -15
-12 -3 -8 0 -11 6 -7 7 4 9 -1 5 -16 -3 -13 -6 -35 -6 -50 -1 -14 -5 -24 -8
-22 -4 2 -13 -4 -20 -13 -12 -14 -12 -16 1 -11 11 4 16 -1 17 -14 1 -10 -5
-22 -13 -25 -13 -5 -13 -8 -2 -15 10 -7 9 -8 -5 -4 -9 3 -17 1 -17 -4 0 -6 6
-10 14 -10 8 0 14 -10 14 -25 0 -13 -4 -22 -9 -19 -5 3 -9 0 -9 -5 0 -6 4 -11
8 -11 5 0 8 -15 7 -32 0 -18 3 -39 8 -46 6 -7 7 -15 4 -18 -3 -4 3 -29 13 -57
11 -27 16 -55 13 -60 -3 -6 -1 -7 5 -3 7 4 12 2 12 -3 0 -6 12 -25 28 -42 15
-17 26 -35 24 -40 -1 -5 1 -8 5 -7 5 0 34 -11 65 -26 46 -22 74 -28 135 -29
82 -1 178 9 197 20 6 4 19 9 30 10 55 9 243 96 371 173 79 47 81 48 140 42
232 -27 509 21 685 116 202 110 353 276 446 490 19 42 34 82 34 88 0 8 -103
11 -356 12 -321 0 -356 -2 -361 -17 -41 -133 -122 -198 -259 -208 -105 -8
-200 22 -261 83 -61 62 -82 110 -99 231 l-6 43 681 0 681 0 -5 108 c-3 59 -7
125 -10 147 -3 22 -8 57 -10 79 -8 60 -62 214 -102 286 -97 179 -240 313 -426
400 -47 22 -91 40 -99 40 -8 0 -18 3 -22 7 -3 4 -16 8 -28 10 -49 8 -34 22
102 92 322 166 561 157 615 -22 15 -51 13 -175 -4 -219 -6 -16 -9 -28 -6 -28
2 0 -3 -16 -11 -36 -10 -24 -12 -40 -6 -46 15 -15 30 19 57 125 69 268 -24
414 -264 414 -42 1 -87 -1 -101 -4z m-580 -754 c59 -24 70 -33 113 -90 31 -42
47 -85 53 -146 3 -36 1 -43 -14 -44 -140 -5 -617 1 -615 8 1 5 4 27 6 49 14
116 108 216 232 244 58 13 168 3 225 -21z m-1018 -1046 c95 -143 293 -281 485
-339 48 -14 95 -28 103 -31 19 -6 -157 -93 -247 -121 -161 -51 -304 -55 -383
-11 -66 36 -90 90 -86 188 5 89 8 104 43 214 15 45 27 84 28 87 1 9 26 50 29
50 2 0 15 -17 28 -37z"/>
<path d="M334 1253 c-4 -10 -8 -22 -8 -26 -1 -4 -7 -11 -14 -16 -10 -6 -10
-10 1 -20 19 -15 41 11 42 50 1 33 -9 38 -21 12z m16 -37 c0 -2 -7 -7 -16 -10
-8 -3 -12 -2 -9 4 6 10 25 14 25 6z"/>
<path d="M300 1175 c6 -8 9 -18 6 -24 -10 -16 3 -37 25 -38 17 -2 18 1 9 12
-7 8 -17 12 -24 8 -6 -4 -5 1 3 10 11 14 11 20 1 32 -7 8 -17 15 -22 15 -6 0
-5 -6 2 -15z"/>
<path d="M272 1158 c-7 -7 -12 -18 -12 -25 0 -7 -5 -13 -12 -13 -6 0 -8 -3 -5
-6 4 -4 -2 -19 -13 -34 -11 -16 -20 -33 -20 -38 0 -12 26 -23 34 -15 9 9 7 23
-1 21 -5 -2 -9 0 -10 5 -6 16 -2 19 12 7 8 -7 15 -8 15 -3 0 5 9 9 20 9 11 0
20 -4 20 -9 0 -5 8 -3 18 4 14 11 15 11 5 -1 -17 -18 -16 -30 1 -30 7 0 13 10
12 23 -1 14 -7 22 -19 21 -9 -1 -17 3 -17 8 0 7 -5 6 -14 -1 -10 -9 -16 -8
-26 4 -8 10 -9 15 -1 15 9 0 41 50 41 65 0 9 -16 5 -28 -7z m11 -13 c-3 -9 -8
-14 -10 -11 -3 3 -2 9 2 15 9 16 15 13 8 -4z"/>
<path d="M252 1030 c-13 -21 -30 -22 -47 -5 -5 6 -9 9 -8 7 1 -2 -10 -24 -24
-49 -14 -25 -20 -42 -14 -39 6 4 11 2 11 -5 0 -8 4 -8 15 1 11 9 12 16 5 25
-13 16 4 30 22 19 7 -5 8 -3 3 6 -6 9 -4 11 5 5 9 -6 11 -4 5 4 -6 10 -3 11
13 2 14 -7 23 -8 27 -1 3 5 1 10 -5 10 -6 0 -8 5 -5 10 10 16 42 12 49 -6 3
-8 12 -12 18 -9 7 4 4 -1 -6 -9 -14 -12 -23 -13 -33 -5 -9 8 -13 8 -13 1 0 -6
5 -14 10 -17 6 -4 8 -10 5 -15 -3 -5 -1 -11 4 -14 13 -9 42 4 39 18 -4 20 23
58 38 52 17 -7 18 6 2 22 -13 13 -32 16 -24 4 2 -4 1 -14 -3 -21 -7 -11 -13
-9 -30 8 -26 26 -43 27 -59 1z m68 -64 c0 -3 -4 -8 -10 -11 -5 -3 -10 -1 -10
4 0 6 5 11 10 11 6 0 10 -2 10 -4z"/>
<path d="M280 1005 c7 -9 15 -13 17 -11 7 7 -7 26 -19 26 -6 0 -6 -6 2 -15z"/>
<path d="M230 979 c0 -6 -9 -8 -22 -3 -20 6 -21 5 -9 -10 10 -12 17 -14 27 -5
11 9 14 8 14 -1 0 -9 4 -9 17 1 9 8 14 9 10 3 -9 -16 23 -56 40 -50 9 4 12 1
7 -7 -5 -9 -4 -9 7 1 10 9 10 15 1 24 -9 9 -12 9 -12 -2 0 -9 -5 -8 -20 5 -11
10 -17 21 -14 26 2 4 -4 13 -15 18 -25 14 -31 14 -31 0z"/>
<path d="M189 934 c-5 -6 -20 -9 -32 -6 -12 3 -19 1 -14 -3 13 -14 47 -16 47
-2 0 9 3 8 9 -2 6 -9 11 -10 15 -2 4 6 12 8 18 5 7 -5 8 -2 4 7 -4 8 -1 6 8
-4 8 -11 12 -26 8 -35 -5 -15 -4 -15 11 -3 15 12 20 11 35 -3 21 -18 32 -21
32 -7 0 5 -13 14 -30 21 -16 7 -32 20 -35 29 -6 20 -60 24 -76 5z"/>
<path d="M215 911 c-2 -5 -20 -8 -39 -6 -19 1 -41 -2 -48 -6 -10 -7 -10 -9 2
-10 8 -1 30 -2 48 -4 22 -2 35 2 39 12 4 11 8 11 13 3 5 -8 10 -8 14 -2 3 5
-1 12 -9 16 -8 3 -17 1 -20 -3z"/>
<path d="M216 881 c-3 -5 -26 -8 -51 -6 -44 2 -68 -10 -49 -24 12 -8 16 -31 6
-31 -4 0 -14 6 -21 13 -10 8 -12 8 -7 0 3 -6 2 -14 -4 -18 -6 -4 -8 -11 -5
-16 4 -5 0 -9 -7 -9 -8 0 -6 -5 5 -11 20 -12 23 -31 3 -23 -17 6 -31 -12 -16
-21 6 -4 7 -11 4 -17 -4 -6 -10 -5 -15 3 -6 10 -9 10 -9 2 0 -20 17 -24 33 -8
20 19 22 19 24 -3 1 -18 -8 -22 -52 -23 -15 0 -16 -2 -6 -8 11 -7 10 -11 -5
-20 -18 -11 -18 -12 1 -6 16 4 21 0 21 -15 0 -15 -5 -18 -18 -14 -10 3 -18 0
-18 -6 0 -6 5 -8 11 -4 7 4 10 1 7 -7 -3 -8 1 -22 10 -31 19 -22 -1 -24 -22
-2 -9 8 -16 11 -16 5 0 -5 8 -15 18 -20 16 -10 16 -10 0 -11 -25 0 -30 -16
-10 -31 15 -12 16 -12 4 2 -11 14 -9 18 15 24 36 9 37 9 41 -5 2 -6 0 -10 -5
-9 -20 4 -33 -2 -33 -15 0 -29 20 -26 39 4 10 18 22 27 25 22 3 -6 -6 -25 -21
-44 -15 -18 -23 -30 -19 -26 5 4 17 -3 27 -15 14 -17 20 -19 30 -10 10 10 9
15 -1 28 -7 8 -9 15 -4 15 5 0 2 5 -6 10 -10 6 -11 10 -3 10 7 0 12 3 12 8 -3
19 2 33 11 27 7 -4 7 -13 0 -26 -7 -13 -7 -19 0 -19 5 0 9 -3 9 -7 -4 -25 3
-34 20 -28 25 8 22 -19 -4 -38 -10 -8 -15 -19 -11 -25 3 -6 2 -13 -4 -17 -5
-3 -10 2 -10 11 0 10 -3 15 -6 11 -4 -3 -4 -13 0 -22 5 -15 8 -15 27 -1 16 11
27 12 41 5 23 -12 37 -4 35 20 -1 17 -3 17 -22 5 -21 -14 -35 -10 -35 8 0 5 5
6 10 3 13 -8 42 14 34 26 -3 5 0 18 6 29 8 15 8 18 -3 15 -21 -9 -18 34 4 48
10 6 19 15 19 20 0 4 -4 6 -9 3 -16 -10 -19 18 -4 35 7 9 15 25 17 35 2 11 6
25 8 33 2 10 -6 16 -24 17 -24 2 -26 1 -16 -16 7 -10 15 -17 18 -15 4 2 7 -2
7 -10 0 -11 -4 -12 -14 -3 -7 6 -16 8 -20 4 -4 -3 2 -12 12 -19 15 -12 16 -14
1 -14 -9 0 -16 4 -16 9 0 5 -5 6 -11 2 -8 -4 -7 -9 2 -15 12 -7 11 -9 0 -9
-11 0 -10 -3 3 -13 17 -13 17 -14 0 -28 -10 -7 -15 -9 -11 -3 9 15 -28 62 -40
51 -4 -5 0 -13 10 -18 23 -13 23 -41 0 -32 -11 4 -13 8 -5 11 8 2 4 11 -10 23
-13 10 -17 18 -11 19 7 0 12 3 12 8 -3 20 2 32 12 26 8 -4 7 -9 -2 -15 -10 -6
-10 -9 -2 -9 6 0 15 5 18 10 4 6 11 7 17 4 7 -4 8 -2 4 4 -4 7 -1 12 6 12 10
0 9 3 -2 9 -8 6 -18 7 -24 4 -5 -4 -6 0 -1 8 7 12 6 12 -7 1 -19 -15 -29 -4
-23 27 4 20 2 21 -13 9 -15 -11 -16 -11 -5 3 7 9 9 20 5 24 -4 5 0 4 8 0 13
-8 13 -7 0 10 -13 17 -13 18 0 10 13 -8 13 -7 0 10 -15 18 -14 18 11 1 23 -15
27 -15 32 -2 4 9 2 18 -3 21 -4 3 -10 -1 -13 -7 -3 -9 -10 -7 -23 6 -19 19
-19 20 0 5 11 -7 17 -9 13 -2 -4 6 -2 15 4 19 8 5 9 3 4 -7 -5 -8 -4 -11 0 -6
5 4 9 16 10 27 1 16 -2 17 -18 8 -15 -8 -18 -7 -12 3 6 8 4 10 -6 4 -12 -8
-12 -6 0 8 9 11 21 15 34 11 15 -5 17 -3 11 7 -6 12 -5 12 9 0 14 -11 17 -11
17 0 0 8 7 4 16 -9 14 -21 35 -30 33 -14 -1 4 -1 14 0 22 1 13 3 13 12 0 9
-13 10 -12 5 3 -3 10 -2 15 4 12 13 -8 5 -51 -9 -47 -6 1 -11 -2 -11 -6 0 -5
-7 -17 -16 -28 -15 -18 -15 -18 -5 3 6 12 7 24 2 27 -4 3 -13 -6 -19 -20 -11
-22 -9 -26 11 -34 13 -5 16 -9 7 -10 -13 0 -13 -1 0 -11 12 -8 10 -9 -8 -4
-23 7 -23 6 -8 -17 9 -14 13 -29 9 -34 -5 -5 4 2 20 15 27 24 36 38 17 26 -5
-3 -10 -3 -11 2 0 4 -2 16 -4 27 -5 26 6 51 15 36 5 -9 10 -6 15 9 3 11 10 21
14 21 13 0 10 39 -5 51 -11 9 -18 9 -26 1 -7 -7 -17 -8 -29 -2 -10 6 -20 6
-23 1z m29 -19 c-3 -3 -11 0 -18 7 -9 10 -8 11 6 5 10 -3 15 -9 12 -12z m-95
2 c0 -8 -19 -13 -24 -6 -3 5 1 9 9 9 8 0 15 -2 15 -3z m4 -56 c-3 -5 -9 -6
-13 -4 -4 3 -13 1 -21 -5 -13 -7 -13 -9 0 -9 13 0 13 -1 0 -10 -8 -5 -10 -10
-4 -10 13 0 12 -45 0 -57 -5 -4 -6 -3 -2 4 3 6 2 14 -4 18 -6 4 -8 11 -4 16 3
5 2 15 -3 22 -8 10 -10 29 -4 40 0 1 14 2 30 2 16 1 27 -3 25 -7z m-64 -68 c0
-5 -2 -10 -4 -10 -3 0 -8 5 -11 10 -3 6 -1 10 4 10 6 0 11 -4 11 -10z m44 -54
c-3 -8 -1 -17 5 -21 17 -10 -16 -64 -40 -65 -3 0 -6 7 -6 15 0 8 7 14 15 13 8
-2 17 4 19 12 4 13 3 13 -6 0 -8 -12 -11 -12 -11 -1 0 11 -3 11 -15 1 -9 -7
-18 -10 -22 -6 -4 3 2 13 13 21 16 13 16 14 2 9 -11 -4 -18 -1 -18 6 0 6 5 8
10 5 6 -3 10 0 10 7 1 7 7 2 14 -11 8 -14 16 -19 20 -13 3 6 0 13 -6 15 -10 4
-9 8 2 16 19 14 20 14 14 -3z m56 -32 c0 -8 -19 -13 -24 -6 -3 5 1 9 9 9 8 0
15 -2 15 -3z m-102 -46 c-2 -7 6 -13 17 -13 25 0 47 -14 40 -25 -7 -11 30 -32
39 -23 3 3 6 0 6 -7 0 -9 7 -7 23 6 l22 19 -18 -22 c-10 -12 -27 -20 -37 -18
-18 4 -22 -17 -5 -32 4 -4 5 -2 0 6 -6 10 -4 12 5 6 9 -5 11 -4 6 3 -5 8 -1
10 9 5 12 -4 13 -8 5 -13 -8 -5 -8 -9 3 -13 18 -7 15 -50 -4 -55 -11 -3 -11
-1 1 7 10 7 11 11 2 11 -6 0 -11 3 -11 8 4 26 -1 34 -16 22 -17 -14 -17 -15
-19 25 -3 42 -11 53 -40 50 -30 -4 -70 37 -53 54 15 15 28 14 25 -1z m-16
-100 c-7 -7 -12 -8 -12 -2 0 14 12 26 19 19 2 -3 -1 -11 -7 -17z m54 -55 c-8
-9 -36 30 -29 40 3 5 12 -1 20 -13 8 -12 12 -24 9 -27z m49 -43 c3 -5 1 -10
-4 -10 -6 0 -11 5 -11 10 0 6 2 10 4 10 3 0 8 -4 11 -10z m55 -10 c0 -5 -5
-10 -11 -10 -5 0 -7 5 -4 10 3 6 8 10 11 10 2 0 4 -4 4 -10z"/>
<path d="M74 593 c4 -7 16 -18 28 -24 16 -9 19 -8 13 2 -6 9 -3 11 9 6 11 -4
15 -3 11 4 -4 6 -14 8 -22 5 -9 -4 -23 -1 -31 6 -12 10 -14 10 -8 1z"/>
<path d="M189 845 c0 -5 -2 -20 -3 -33 -2 -13 1 -25 6 -28 15 -10 -11 -44 -30
-38 -14 5 -14 4 -3 -4 20 -14 23 -42 5 -49 -8 -3 -14 -10 -14 -15 0 -6 6 -5
15 2 11 10 18 9 30 -4 20 -20 32 -21 16 -2 -10 11 -8 17 6 25 11 6 13 11 5 11
-7 0 -10 5 -7 10 3 6 -1 13 -10 16 -14 6 -14 8 1 19 12 8 14 14 5 19 -8 5 -8
13 -1 27 6 10 7 19 3 19 -4 0 -2 4 6 9 9 6 10 11 2 15 -6 4 -11 1 -11 -6 0 -9
-3 -9 -10 2 -5 8 -10 11 -11 5z m17 -130 c-1 -8 -4 -16 -7 -17 -2 -2 -3 -1 -2
1 1 2 -2 12 -8 22 -7 14 -6 17 5 13 8 -3 13 -12 12 -19z"/>
<path d="M175 621 c-3 -5 -2 -12 3 -15 5 -3 9 1 9 9 0 17 -3 19 -12 6z"/>
<path d="M33 485 c0 -8 4 -12 9 -9 5 3 6 10 3 15 -9 13 -12 11 -12 -6z"/>
<path d="M35 459 c-19 -9 -19 -9 2 -5 12 2 24 -2 27 -10 7 -17 26 -19 26 -2 0
6 -3 8 -7 5 -3 -4 -11 0 -17 7 -8 10 -17 11 -31 5z"/>
<path d="M136 435 c-10 -8 -23 -12 -27 -9 -4 2 -13 -5 -19 -17 -7 -12 -8 -19
-2 -15 6 3 13 0 16 -6 3 -7 3 -2 0 11 -4 13 -2 21 3 18 5 -3 22 3 39 14 16 10
25 19 19 19 -5 -1 -19 -7 -29 -15z"/>
<path d="M34 381 c0 -16 4 -27 8 -25 4 2 5 14 3 26 -7 32 -13 32 -11 -1z"/>
<path d="M67 379 c7 -7 15 -10 18 -7 3 3 -2 9 -12 12 -14 6 -15 5 -6 -5z"/>
<path d="M180 370 c12 -7 12 -12 2 -22 -9 -9 -12 -9 -12 0 0 16 -17 15 -23 -1
-7 -17 26 -15 48 3 13 10 13 15 3 21 -7 5 -17 9 -23 9 -5 0 -3 -5 5 -10z"/>
<path d="M99 353 c-13 -16 -12 -17 3 -5 9 8 23 10 29 6 8 -4 9 -3 5 4 -10 17
-21 15 -37 -5z"/>
<path d="M216 355 c-3 -9 1 -18 9 -21 8 -4 12 -10 9 -15 -3 -5 0 -9 5 -9 17 0
13 20 -5 27 -15 6 -15 8 2 20 15 11 15 13 2 13 -9 0 -19 -7 -22 -15z"/>
<path d="M115 320 c3 -5 8 -10 11 -10 2 0 4 5 4 10 0 6 -5 10 -11 10 -5 0 -7
-4 -4 -10z"/>
<path d="M186 322 c-2 -4 4 -8 14 -8 10 0 16 4 14 8 -3 4 -9 8 -14 8 -5 0 -11
-4 -14 -8z"/>
<path d="M202 280 c7 -10 14 -18 15 -16 6 6 -9 36 -18 36 -5 0 -4 -9 3 -20z"/>
<path d="M86 258 c3 -5 10 -6 15 -3 13 9 11 12 -6 12 -8 0 -12 -4 -9 -9z"/>
<path d="M226 239 c4 -8 30 -6 38 2 3 3 -5 5 -19 5 -13 0 -22 -3 -19 -7z"/>
<path d="M255 180 c3 -5 8 -10 11 -10 2 0 4 5 4 10 0 6 -5 10 -11 10 -5 0 -7
-4 -4 -10z"/>
</g>
</svg>
